<svg id="Layer_1" data-name="Layer 1" xmlns="http://www.w3.org/2000/svg" xmlns:xlink="http://www.w3.org/1999/xlink" viewBox="0 0 307.11 358.53"><defs><style>.cls-1{fill:url(#radial-gradient);}.cls-2{fill:url(#radial-gradient-2);}</style><radialGradient id="radial-gradient" cx="151.4" cy="189.83" fx="261.23853669214407" fy="485.6621317479926" r="315.57" gradientUnits="userSpaceOnUse"><stop offset="0.11" stop-color="#ffdd90"/><stop offset="0.31" stop-color="#ffcf65"/><stop offset="0.4" stop-color="#ffc84f"/><stop offset="0.49" stop-color="#ffc441"/><stop offset="0.55" stop-color="#fec23b"/><stop offset="0.63" stop-color="#fdbc2b"/><stop offset="0.71" stop-color="#fbb314"/><stop offset="0.8" stop-color="#f8b113"/><stop offset="0.86" stop-color="#f0ab11"/><stop offset="0.91" stop-color="#e2a00d"/><stop offset="0.95" stop-color="#ce9007"/><stop offset="0.96" stop-color="#c38804"/></radialGradient><radialGradient id="radial-gradient-2" cx="152.51" cy="212.09" fx="232.15894291256512" r="79.9" gradientTransform="translate(0 -612.64) scale(1 3.93)" gradientUnits="userSpaceOnUse"><stop offset="0.03" stop-color="#ffdd90"/><stop offset="0.41" stop-color="#ffcf65"/><stop offset="0.52" stop-color="#ffc84f"/><stop offset="0.62" stop-color="#ffc441"/><stop offset="0.69" stop-color="#fec036"/><stop offset="0.8" stop-color="#fbb519"/><stop offset="0.82" stop-color="#fbb314"/><stop offset="0.86" stop-color="#f2ac11"/><stop offset="0.92" stop-color="#da9a0b"/><stop offset="0.96" stop-color="#c38804"/></radialGradient></defs><title>Apollo_Logo2</title><path class="cls-1" d="M292.09,358.53H241.14a30,30,0,0,1-13.42-3.17l-27.33-13.67A30.05,30.05,0,0,0,187,338.53H120.14a30,30,0,0,0-13.42,3.16L79.39,355.36A30.06,30.06,0,0,1,66,358.53H15A15,15,0,0,1,1,338.07l124.57-319c9.94-25.45,46-25.45,55.89,0l124.57,319A15,15,0,0,1,292.09,358.53Z"/><path class="cls-2" d="M186.94,265.53H119.17a5,5,0,0,1-4.71-6.69l29.18-81.15a10,10,0,0,1,18.82,0l29.19,81.15A5,5,0,0,1,186.94,265.53Z"/></svg>